<svg width="20" height="12" viewBox="0 0 20 12" fill="none" xmlns="http://www.w3.org/2000/svg">
<path fill-rule="evenodd" clip-rule="evenodd" d="M18.7001 1.40122C18.8268 0.985991 18.7001 0.68087 18.0967 0.68087H16.1016C15.5943 0.68087 15.3604 0.944448 15.2336 1.23509C15.2336 1.23509 14.2189 3.6642 12.7816 5.24202C12.3166 5.69879 12.1052 5.84415 11.8516 5.84415C11.7248 5.84415 11.5345 5.69879 11.5345 5.28359V1.40122C11.5345 0.902944 11.394 0.68087 10.9712 0.68087H7.83598C7.51897 0.68087 7.32831 0.912131 7.32831 1.13131C7.32831 1.60367 8.04693 1.71261 8.121 3.04136V5.9272C8.121 6.55988 8.00468 6.67462 7.75102 6.67462C7.07466 6.67462 5.42941 4.23467 4.45362 1.44273C4.26239 0.900072 4.07059 0.68087 3.56069 0.68087H1.56555C0.995515 0.68087 0.8815 0.944448 0.8815 1.23509C0.8815 1.75415 1.5579 4.32857 4.03091 7.73343C5.67958 10.0586 8.00243 11.3191 10.1161 11.3191C11.3844 11.3191 11.5413 11.0392 11.5413 10.557V8.79954C11.5413 8.23966 11.6614 8.12788 12.063 8.12788C12.3589 8.12788 12.8662 8.27324 14.0498 9.39437C15.4027 10.7231 15.6257 11.3191 16.3865 11.3191H18.3817C18.9517 11.3191 19.2368 11.0392 19.0723 10.4867C18.8924 9.93608 18.2466 9.13722 17.3896 8.19019C16.9245 7.65038 16.227 7.06907 16.0156 6.77834C15.7197 6.40471 15.8042 6.2386 16.0156 5.90646C16.0156 5.90646 18.4464 2.54307 18.7001 1.40122V1.40122Z" fill="white"/>
</svg>
